PathFileType	4	(X/Y/Z)	F:\MotionCapture\20160217\3\Generated_files\P_3_test01-Dynamic.trc
DataRate	CameraRate	NumFrames	NumMarkers	Units	OrigDataRate	OrigDataStartFrame	OrigNumFrames
120.00	120.00	      8	39	mm	120.00	295	      2357
Frame#	Time	Top.Head			Front.Head			Rear.Head			R.Shoulder			R.Offset			R.Elbow			R.Wrist			L.Shoulder			L.Elbow			L.Wrist			R.ASIS			L.ASIS			V.Sacral			R.Thigh			R.Knee			R.Shank			R.Ankle			R.Heel			R.Toe			L.Thigh			L.Knee			L.Shank			L.Ankle			L.Heel			L.Toe			R1			R2			R3			R4			R5			R6			R7			L1			L2			L3			L4			L5			L6			L7			V_Mid_ASIS			V_Pelvis_Origin			V_R.Hip_JC			V_L.Hip_JC			V_R.Knee_JC			V_L.Knee_JC			V_R.Ankle_JC			V_L.Ankle_JC			V_Mid_Hip			V_Mid_Shoulder			V_R.Hand			V_L.Hand			V_R.Toe_Offset_Static			V_L.Toe_Offset_Static			V_R.Toe_Offset			V_L.Toe_Offset			
		X1	Y1	Z1	X2	Y2	Z2	X3	Y3	Z3	X4	Y4	Z4	X5	Y5	Z5	X6	Y6	Z6	X7	Y7	Z7	X8	Y8	Z8	X9	Y9	Z9	X10	Y10	Z10	X11	Y11	Z11	X12	Y12	Z12	X13	Y13	Z13	X14	Y14	Z14	X15	Y15	Z15	X16	Y16	Z16	X17	Y17	Z17	X18	Y18	Z18	X19	Y19	Z19	X20	Y20	Z20	X21	Y21	Z21	X22	Y22	Z22	X23	Y23	Z23	X24	Y24	Z24	X25	Y25	Z25	X26	Y26	Z26	X27	Y27	Z27	X28	Y28	Z28	X29	Y29	Z29	X30	Y30	Z30	X31	Y31	Z31	X32	Y32	Z32	X33	Y33	Z33	X34	Y34	Z34	X35	Y35	Z35	X36	Y36	Z36	X37	Y37	Z37	X38	Y38	Z38	X39	Y39	Z39	

295	2.450	-159.84026	57.87333	1572.52051	-152.14145	53.60925	1433.63672	-281.77359	62.72412	1611.99719	-404.10410	-144.05232	1416.38306	-589.59814	113.41907	1300.31445	-546.22485	-265.49872	1130.72852	-500.11511	-289.51837	876.12170	-394.87054	257.89822	1394.56763	-527.13788	350.81305	1097.51855	-483.37311	371.80307	846.87634	-467.83984	-120.14063	947.56110	-431.04633	165.59448	937.97034	-671.84906	52.91766	957.64478	-397.45886	-153.48595	586.61737	-490.66916	-195.20908	479.63766	-570.45056	-122.06955	261.21240	-710.58527	-169.65392	146.51605	-763.07080	-89.24691	139.35426	-595.09650	-184.35268	66.54813	-374.62561	115.27373	633.36371	-438.22318	169.32899	467.38037	-422.88571	89.44491	329.17874	-475.41037	154.48982	60.90726	-538.63806	100.57603	40.86959	-330.74890	133.12379	38.65507	-548.84351	-181.07118	61.25470	-576.05164	-151.44019	71.92838	-647.18250	-98.05244	112.14561	-717.82477	-73.69826	124.93440	-750.87250	-141.22041	130.33524	-691.22876	-187.07393	91.82871	-637.59430	-208.89798	68.12592	-288.34772	96.58253	32.28668	-323.50873	93.43782	42.74305	-421.61490	59.16635	48.73652	-502.67746	66.04182	42.15738	-508.58221	138.44333	38.05298	-433.91638	161.34029	31.52366	-369.80673	170.86938	35.65805	
296	2.458	-156.32355	57.77584	1572.14832	-148.27379	53.72051	1433.40710	-278.19275	62.72931	1611.51172	-400.48325	-143.68301	1416.50366	-586.43927	114.13969	1300.68506	-544.26764	-265.35370	1131.46448	-499.19553	-290.00192	876.61084	-391.81042	258.25278	1394.85474	-523.84186	350.76288	1097.91675	-479.80576	371.91080	847.51489	-465.03384	-119.80854	948.25549	-428.78796	165.85895	938.15961	-669.91681	52.63944	958.47021	-393.59506	-151.23123	587.67712	-484.99255	-194.62245	480.45346	-560.37360	-122.18238	260.63745	-699.12354	-170.67932	142.88620	-751.64874	-90.71307	134.18112	-581.75897	-185.24353	65.73117	-373.91019	115.55384	633.27582	-438.14139	169.46907	467.41190	-422.40344	89.74883	329.07114	-475.39700	154.45480	60.87025	-538.61499	100.44791	40.90120	-330.86597	133.16357	38.54201	-535.29816	-181.50900	61.76786	-562.93622	-152.19592	71.20908	-635.37830	-98.48643	109.70792	-706.40637	-74.74754	120.80040	-738.83636	-142.30095	126.18504	-678.47302	-188.16808	89.50485	-624.41803	-210.36516	66.95313	-288.23282	96.62295	32.26441	-323.40805	93.52576	42.76733	-421.56723	59.11380	48.74696	-502.62915	65.96757	42.18532	-508.54117	138.39413	38.00830	-434.02872	161.34190	31.45557	-369.77936	170.84038	35.66362	
297	2.467	-152.78416	57.21016	1571.63135	-145.98463	53.52738	1432.22766	-274.79678	62.71946	1611.49170	-397.75131	-143.48866	1416.19360	-583.48712	114.33452	1301.66675	-541.88708	-265.14142	1132.26453	-497.85809	-289.99985	876.97644	-388.37747	258.28976	1395.13989	-520.45978	350.80106	1098.50598	-475.74539	371.41037	847.84149	-462.15186	-118.84921	948.83350	-426.99316	166.40244	937.94501	-667.49908	52.63579	958.86292	-389.75519	-149.56105	588.59143	-479.02222	-193.43092	480.90851	-552.20148	-121.39725	259.56204	-687.11279	-171.50511	139.38536	-740.24432	-92.08492	129.41154	-568.31165	-185.78833	65.40218	-371.55347	116.18019	632.78436	-437.91049	169.62755	467.33545	-421.86108	90.10720	328.94284	-475.40839	154.43048	60.83648	-538.59198	100.34341	40.97843	-330.81485	133.25587	38.55741	-521.31866	-181.66499	61.92951	-548.77252	-152.66205	71.59953	-623.33728	-98.98457	107.40012	-694.08997	-75.60958	116.90459	-726.56616	-143.66432	121.66124	-665.00201	-189.14786	86.45959	-609.92664	-210.75394	65.32794	-288.30627	96.67976	32.21143	-323.44507	93.55720	42.77193	-421.46817	59.24184	48.75238	-503.13361	66.23033	42.23549	-508.58792	138.36555	38.09191	-434.05615	161.31326	31.44689	-369.83835	170.88983	35.62985																																																	3803.44312	-1567.52307	-190.30916	
298	2.475	-149.16083	57.06155	1571.23914	-142.52765	53.21255	1431.96814	-271.44553	62.14527	1611.40967	-394.34030	-143.14659	1416.04553	-580.49060	114.84635	1301.97925	-539.15637	-264.71149	1132.37830	-497.13690	-290.66925	877.41577	-385.37729	258.58807	1395.49377	-517.70715	350.58578	1098.79431	-471.87274	371.31070	848.15924	-459.97867	-118.86559	949.48694	-424.31555	167.01939	937.99768	-664.99182	52.44142	959.25616	-384.95612	-147.59579	589.93610	-473.75662	-192.26520	481.49582	-542.87067	-120.89449	258.85458	-674.92657	-172.33531	135.50792	-728.72827	-93.25289	124.21755	-553.81927	-185.58948	64.65087	-370.67316	116.44102	632.29865	-437.63568	169.81091	467.24066	-421.71722	90.15558	328.86307	-475.55338	154.49338	60.89885	-538.63190	100.29236	41.00917	-330.80276	133.25813	38.52243	-506.74432	-181.17212	62.13642	-535.55023	-152.35468	70.07616	-610.72241	-99.22029	105.04153	-682.41632	-77.07060	112.84308	-714.04401	-144.76009	117.63395	-650.89923	-189.61674	83.26840	-596.07684	-211.47458	63.67368	-288.15848	96.70932	32.22776	-323.42249	93.65791	42.72028	-421.44199	59.26785	48.73059	-502.47491	65.77818	42.13859	-508.72064	138.30968	38.17194	-434.02795	161.32516	31.43494	-369.91144	170.94914	35.62032																																																	3805.08496	-1564.94946	-189.12784	
299	2.483	-145.94568	56.21435	1570.80164	-139.32178	52.41075	1431.93018	-267.89908	61.76160	1611.33508	-391.37363	-143.36116	1415.98853	-577.99225	115.00179	1302.48291	-537.59772	-264.91211	1133.10181	-496.27570	-290.90137	877.77972	-381.92346	258.32693	1395.75647	-514.58447	350.30246	1099.12463	-468.31543	371.24142	848.56042	-456.39923	-118.08739	949.96631	-422.70792	167.33723	938.02484	-662.52875	52.17716	959.81763	-379.36130	-146.19325	591.52734	-468.11429	-191.16293	481.44855	-534.34497	-120.23427	257.63202	-662.19373	-173.31644	131.72098	-716.60352	-94.23529	118.47615	-539.61176	-185.12737	63.77407	-370.20071	116.48803	631.77240	-437.30634	169.93456	467.08276	-421.52298	90.24249	328.79181	-475.66238	154.50575	60.94305	-538.65265	100.22507	41.08537	-330.79434	133.32388	38.44648	-492.60577	-180.36421	62.61170	-521.08868	-151.71367	70.74327	-597.52649	-100.06664	103.03815	-670.60895	-77.94601	108.75881	-700.65155	-145.82755	113.00652	-637.16418	-190.60167	79.82887	-581.19714	-211.48332	62.12933	-288.13391	96.79728	32.19761	-323.39005	93.74005	42.75593	-421.40387	59.33045	48.79329	-502.36563	65.68428	42.19504	-508.65451	138.27512	38.15112	-434.06076	161.31151	31.43205	-369.88062	170.96861	35.55358																																																	3618.47974	-1476.61206	-1009.82330	
300	2.492	-142.17169	55.83599	1570.40088	-136.04871	52.24733	1431.69556	-264.64566	61.40242	1611.00854	-388.75424	-143.24370	1415.93323	-575.01685	115.12821	1303.17920	-535.68311	-265.09933	1133.51501	-495.01785	-291.43411	877.92358	-377.79352	258.85260	1397.26746	-511.10663	350.25580	1099.45203	-464.74808	370.93085	849.24597	-454.23755	-118.02910	950.38818	-420.31390	167.58516	938.27728	-660.26862	51.63920	959.95227	-376.69244	-143.42720	591.42938	-462.37589	-189.46208	481.78210	-524.49237	-119.60099	256.86130	-649.10199	-174.12698	127.27377	-704.62451	-96.69044	113.81282	-524.57245	-184.40079	62.97574	-368.83340	116.75911	631.35144	-436.74088	169.96213	466.92813	-421.19318	90.35188	328.64084	-475.64462	154.49777	60.95220	-538.59180	100.16263	41.12097	-330.82568	133.37448	38.46422	-478.24176	-178.89725	62.59352	-507.68436	-150.86896	69.41926	-585.76398	-99.40559	100.18900	-658.61377	-78.92287	104.79852	-687.50934	-147.17519	108.47458	-622.89594	-191.02077	76.92174	-566.49139	-211.32745	60.40826	-288.20493	96.81303	32.14441	-323.35403	93.78782	42.76594	-421.31259	59.32553	48.73186	-502.33420	65.59532	42.25834	-508.67529	138.17238	38.17950	-434.11816	161.26283	31.47628	-369.92148	171.01334	35.53838																																																	3618.80225	-1473.57117	-1014.13702	
301	2.500	-139.25603	55.11959	1569.99792	-133.30495	52.12132	1431.03955	-261.39941	60.64662	1610.72327	-386.05746	-143.56540	1415.73889	-572.05811	115.10783	1303.39807	-533.23859	-264.87097	1133.71387	-493.71735	-291.88644	878.16681	-374.96823	258.49713	1397.63147	-508.26077	350.15103	1099.82239	-461.35089	370.43274	849.58429	-451.31790	-117.71393	950.52521	-418.58719	167.61394	938.16052	-658.23523	51.13626	960.09412	-372.67719	-141.21169	592.25049	-456.77548	-188.04103	481.90704	-515.51355	-118.64868	255.96251	-636.15558	-174.93845	123.40788	-692.60016	-98.51194	108.65958	-510.46671	-183.11353	62.12297	-367.39883	116.92600	631.35645	-436.04773	170.14662	466.90808	-420.87268	90.46935	328.49469	-475.64832	154.38826	60.78279	-538.61011	100.08879	41.08710	-330.78629	133.41052	38.42751	-463.17816	-176.90550	62.89705	-494.34256	-149.68784	69.41848	-573.18726	-99.19002	97.80114	-645.91217	-79.79741	100.52932	-675.06934	-148.54277	102.85390	-608.33502	-191.52716	73.60526	-551.13281	-210.68938	58.48381	-288.07492	96.89055	32.11163	-323.25043	93.89806	42.80853	-421.29132	59.37601	48.74625	-502.25150	65.55716	42.23195	-508.69955	138.14220	38.18668	-434.07904	161.23787	31.43787	-369.99805	171.08601	35.51112																																																	3618.71558	-1470.37476	-1019.85669	
302	2.508	-136.48009	54.28818	1569.95398	-130.38800	51.17667	1430.95374	-258.04514	60.33426	1610.78186	-383.23660	-143.81836	1415.85559	-568.88031	115.34920	1303.57556	-530.87482	-264.93036	1134.02319	-492.91354	-292.13559	878.22375	-371.62766	258.37836	1398.05872	-505.15808	349.70386	1100.17346	-458.20782	370.15677	849.98523	-448.66321	-117.25938	951.10419	-416.79672	168.41411	938.12665	-656.01398	50.68709	960.48151	-368.23788	-138.99530	593.16730	-451.35577	-186.61369	482.00226	-506.30475	-117.96646	254.81592	-623.22821	-176.16466	119.79629	-680.11499	-100.69101	103.47936	-495.30685	-181.93858	61.67461	-366.29144	117.48048	630.79974	-435.27582	170.17409	466.77332	-420.47513	90.51149	328.36981	-475.69043	154.39818	60.83651	-538.61597	100.03281	41.13128	-330.67484	133.45520	38.48280	-448.54193	-174.88702	63.38440	-478.37881	-148.18108	69.81674	-560.95966	-99.45846	95.72356	-633.77106	-80.78455	96.55459	-661.35254	-150.31783	97.56650	-593.70282	-192.06271	70.63087	-535.72601	-210.01297	56.80099	-288.01111	96.96558	32.07635	-323.23987	93.93684	42.81959	-421.18143	59.38704	48.76650	-502.19821	65.53621	42.27189	-508.76486	138.01656	38.29563	-434.03647	161.22588	31.45341	-369.96353	171.12158	35.46437	
